<?xml version="1.0" encoding="iso-8859-1"?>
<!-- Uploaded to: SVG Repo, www.svgrepo.com, Generator: SVG Repo Mixer Tools -->
<svg height="800px" width="800px" version="1.1" id="Layer_1" xmlns="http://www.w3.org/2000/svg" xmlns:xlink="http://www.w3.org/1999/xlink" 
	 viewBox="0 0 512 512" xml:space="preserve">
<path style="fill:#E65C7B;" d="M256,0C114.51,0,0,114.497,0,256c0,141.491,114.497,256,256,256c141.49,0,256-114.497,256-256
	C512,114.509,397.503,0,256,0z M33.391,256c0-55.377,20.331-106.092,53.914-145.085l105.642,105.642
	c6.518,6.519,17.091,6.521,23.611,0c6.52-6.519,6.52-17.091,0-23.611L110.916,87.305C149.908,53.722,200.623,33.391,256,33.391
	c122.746,0,222.609,99.862,222.609,222.609c0,55.377-20.331,106.092-53.914,145.085L319.053,295.443
	c-6.519-6.521-17.091-6.519-23.611,0c-6.52,6.519-6.52,17.091,0,23.611l105.642,105.642
	c-38.992,33.582-89.707,53.912-145.084,53.912C133.254,478.609,33.391,378.746,33.391,256z"/>
<path style="fill:#834496;" d="M256,0v33.391c122.746,0,222.609,99.862,222.609,222.609c0,55.377-20.331,106.092-53.914,145.085
	L319.053,295.443c-6.519-6.521-17.091-6.519-23.611,0c-6.52,6.519-6.52,17.091,0,23.611l105.642,105.642
	c-38.992,33.582-89.707,53.912-145.084,53.912V512c141.49,0,256-114.497,256-256C512,114.509,397.503,0,256,0z"/>
<path style="fill:#FEE856;" d="M229.083,410.869l6.644-115.633h-74.366c-12.888,0-20.931-14.038-14.392-25.159L251.856,91.71
	c8.838-15.031,32.062-8.026,31.059,9.421l-6.644,115.633h74.366c12.888,0,20.931,14.038,14.392,25.159L260.143,420.29
	C251.274,435.371,228.08,428.318,229.083,410.869z"/>
<path style="fill:#FFCE3E;" d="M350.638,216.764h-74.366l6.644-115.633c0.872-15.156-16.535-22.422-26.917-14.219v338.184
	c1.568-1.243,2.981-2.829,4.144-4.807l104.887-178.366C371.57,230.802,363.526,216.764,350.638,216.764z"/>
</svg>